<svg width="36" height="29" viewBox="0 0 36 29" fill="none" xmlns="http://www.w3.org/2000/svg">
<path d="M29.6132 11.357L29.4803 11.1513C29.2625 11.1671 29.05 11.1671 28.8322 11.1513L28.6994 11.3622C28.3913 11.8474 27.791 12.0689 27.2385 11.8948C26.5053 11.6681 26.0166 11.4308 25.4163 10.9404C24.9382 10.5501 24.8213 9.86985 25.1294 9.33723L25.2622 9.11047C25.14 8.93117 25.0338 8.7466 24.9382 8.55149H24.4547C23.8385 8.55149 23.3178 8.11906 23.201 7.51789C23.0628 6.79543 23.0575 6.24172 23.2063 5.48762C23.3178 4.89172 23.8491 4.4593 24.46 4.4593H24.9382C25.0338 4.26418 25.14 4.07961 25.2622 3.90031L25.1241 3.66301C24.816 3.13567 24.9328 2.46594 25.4003 2.06516C25.9635 1.58528 26.4469 1.31106 27.18 1.06321C27.7538 0.868088 28.386 1.10012 28.6941 1.62219L28.8322 1.85422C29.05 1.8384 29.2625 1.8384 29.4803 1.85422L29.6185 1.62219C29.9266 1.10012 30.5588 0.868088 31.1378 1.06848C31.8444 1.30578 32.3225 1.57473 32.9175 2.07571C33.385 2.47121 33.4966 3.14094 33.1885 3.66828L33.0503 3.90031C33.1725 4.07961 33.2788 4.26418 33.3744 4.4593H33.6453C34.2616 4.4593 34.7822 4.89172 34.8991 5.49289C35.0372 6.21535 35.0425 6.76906 34.8938 7.52317C34.7822 8.11906 34.251 8.55149 33.64 8.55149H33.3744C33.2788 8.7466 33.1725 8.93117 33.0503 9.11047L33.1832 9.33723C33.4966 9.87512 33.3691 10.5554 32.891 10.9456C32.3225 11.4097 31.8338 11.6523 31.0847 11.8896C30.5269 12.0636 29.9213 11.8474 29.6132 11.357ZM30.2613 9.53762L30.8244 10.5027C31.1803 10.355 31.5097 10.1652 31.8178 9.93313L31.2547 8.96809L31.5947 8.57258C31.8497 8.27199 32.0516 7.93449 32.1791 7.56535L32.3544 7.07492H33.4753C33.5232 6.70051 33.5232 6.31555 33.4753 5.94113H32.3544L32.1791 5.45071C32.0463 5.08156 31.8497 4.74406 31.5947 4.44348L31.2547 4.04797L31.8125 3.07766C31.5097 2.84563 31.175 2.65578 30.8191 2.50813L30.256 3.47317L29.7407 3.37824C29.3528 3.30442 28.9544 3.30442 28.5666 3.37824L28.0513 3.47317L27.4882 2.50813C27.1375 2.65051 26.8028 2.84563 26.5 3.07766L27.0632 4.0427L26.7232 4.43821C26.4682 4.73879 26.2663 5.07629 26.1388 5.44543L25.9635 5.93586H24.8425C24.7947 6.31028 24.7947 6.69524 24.8425 7.06965H25.9635L26.1388 7.56008C26.2716 7.92922 26.4682 8.26672 26.7232 8.56731L27.0632 8.96281L26.5 9.93313C26.8028 10.1652 27.1375 10.355 27.4935 10.5027L28.0566 9.53762L28.5719 9.63254C28.9597 9.70637 29.3582 9.70637 29.746 9.63254L30.2613 9.53762ZM8.7191 24.9624V23.296C8.03379 23.006 7.38566 22.6316 6.78535 22.1833L5.32441 23.0218C4.80379 23.3171 4.15035 23.2169 3.7466 22.7792C2.46097 21.3923 1.70129 20.1689 1.05847 18.1333C0.87785 17.5691 1.11691 16.9573 1.63222 16.6568L3.08254 15.8183C2.99222 15.08 2.99222 14.3364 3.08254 13.5982L1.63222 12.765C1.11691 12.4697 0.87785 11.8527 1.05847 11.2884C1.70129 9.2634 2.45035 8.03996 3.7466 6.6425C4.15035 6.20481 4.8091 6.10461 5.32441 6.39992L6.78004 7.2384C7.38035 6.79016 8.02847 6.42102 8.71379 6.12571V4.4593C8.71379 3.8634 9.12816 3.35188 9.71254 3.22531C11.556 2.81399 13.0063 2.76653 15.1153 3.22531C15.6997 3.35188 16.1194 3.86867 16.1194 4.4593V6.12571C16.8047 6.41574 17.4528 6.79016 18.0532 7.23313L19.5088 6.39992C20.0294 6.10461 20.6882 6.20481 21.0919 6.6425C22.521 8.20344 23.2966 9.59035 23.8597 11.3095C24.0403 11.8632 23.8172 12.4644 23.3178 12.7702L21.9897 13.6034C22.08 14.3417 22.08 15.0853 21.9897 15.8236L23.4825 16.7464C23.9394 17.0312 24.1732 17.5691 24.0563 18.0911C23.6897 19.7417 22.3032 21.4978 21.0866 22.795C20.6828 23.2275 20.0294 23.3224 19.5141 23.0271L18.0532 22.1886C17.4528 22.6368 16.8047 23.006 16.1194 23.3013V24.9677C16.1194 25.5583 15.705 26.0751 15.1207 26.2017C13.1285 26.6394 11.6728 26.6341 9.70722 26.2017C9.13347 26.0698 8.7191 25.553 8.7191 24.9624ZM10.4191 24.6355C11.7366 24.8991 13.1019 24.8991 14.4194 24.6355V22.12L14.9878 21.9197C15.8803 21.6085 16.7038 21.1339 17.4263 20.5222L17.8832 20.132L20.0825 21.3923C20.975 20.3851 21.8888 19.2144 22.3191 17.954L20.1197 16.6937L20.2313 16.1083C20.4013 15.1802 20.4013 14.2363 20.2313 13.3081L20.1197 12.7228L22.3191 11.4624C21.8888 10.2021 20.975 9.0261 20.0825 8.02414L17.8832 9.28449L17.4263 8.89426C16.7038 8.27727 15.8857 7.80793 14.9878 7.4968L14.4194 7.29641V4.78625C13.1019 4.52258 11.7366 4.52258 10.4191 4.78625V7.30168L9.85066 7.50207C8.95816 7.81321 8.13472 8.28781 7.41222 8.89953L6.95535 9.28977L4.75597 8.02942C3.86646 9.03317 3.18579 10.2017 2.75316 11.4677L4.95254 12.728L4.84097 13.3134C4.67097 14.2415 4.67097 15.1855 4.84097 16.1136L4.95254 16.6989L2.75316 17.9593C3.18347 19.2197 3.86347 20.3956 4.75597 21.3976L6.95535 20.1372L7.41222 20.5275C8.13472 21.1445 8.95285 21.6138 9.85066 21.9249L10.4191 22.1253V24.6355ZM12.4591 19.0825C10.0313 19.0825 8.05504 17.1208 8.05504 14.7109C8.05504 12.3009 10.0313 10.3392 12.4591 10.3392C14.8869 10.3392 16.8632 12.3009 16.8632 14.7109C16.8632 17.1208 14.8869 19.0825 12.4591 19.0825ZM12.4591 12.0267C10.9716 12.0267 9.75504 13.229 9.75504 14.7109C9.75504 16.1927 10.9663 17.395 12.4591 17.395C13.9466 17.395 15.1632 16.1927 15.1632 14.7109C15.1632 13.229 13.9519 12.0267 12.4591 12.0267ZM29.6132 27.4093L29.4803 27.2036C29.2625 27.2195 29.05 27.2195 28.8322 27.2036L28.6994 27.4146C28.3913 27.8997 27.791 28.1212 27.2385 27.9472C26.5053 27.7204 26.0166 27.4831 25.4163 26.9927C24.9382 26.6025 24.8213 25.9222 25.1294 25.3896L25.2622 25.1628C25.14 24.9835 25.0338 24.7989 24.9382 24.6038H24.4547C23.8385 24.6038 23.3178 24.1714 23.201 23.5702C23.0628 22.8478 23.0575 22.2941 23.2063 21.54C23.3178 20.9441 23.8491 20.5116 24.46 20.5116H24.9382C25.0338 20.3165 25.14 20.132 25.2622 19.9527L25.1241 19.7154C24.816 19.188 24.9328 18.5183 25.4003 18.1175C25.9635 17.6376 26.4469 17.3634 27.18 17.1155C27.7538 16.9204 28.386 17.1525 28.6941 17.6745L28.8322 17.9066C29.05 17.8907 29.2625 17.8907 29.4803 17.9066L29.6185 17.6745C29.9266 17.1525 30.5588 16.9204 31.1378 17.1208C31.8444 17.3581 32.3225 17.6271 32.9175 18.128C33.385 18.5236 33.4966 19.1933 33.1885 19.7206L33.0503 19.9527C33.1725 20.132 33.2788 20.3165 33.3744 20.5116H33.6453C34.2616 20.5116 34.7822 20.9441 34.8991 21.5452C35.0372 22.2677 35.0425 22.8214 34.8938 23.5755C34.7822 24.1714 34.251 24.6038 33.64 24.6038H33.3744C33.2788 24.7989 33.1725 24.9835 33.0503 25.1628L33.1832 25.3896C33.4966 25.9275 33.3691 26.6077 32.891 26.998C32.3225 27.462 31.8338 27.7046 31.0847 27.9419C30.5269 28.1107 29.9213 27.8945 29.6132 27.4093ZM30.2613 25.5847L30.8244 26.5497C31.1803 26.4021 31.5097 26.2122 31.8178 25.9802L31.2547 25.0152L31.5947 24.6196C31.8497 24.3191 32.0516 23.9816 32.1791 23.6124L32.3544 23.122H33.4753C33.5232 22.7476 33.5232 22.3626 33.4753 21.9882H32.3544L32.1791 21.4978C32.0463 21.1286 31.8497 20.7911 31.5947 20.4905L31.2547 20.095L31.8178 19.13C31.515 18.898 31.1803 18.7081 30.8244 18.5605L30.2613 19.5255L29.746 19.4306C29.3582 19.3568 28.9597 19.3568 28.5719 19.4306L28.0566 19.5255L27.4935 18.5605C27.1375 18.7081 26.8082 18.898 26.5 19.13L27.0632 20.095L26.7232 20.4905C26.4682 20.7911 26.2663 21.1286 26.1388 21.4978L25.9635 21.9882H24.8425C24.7947 22.3626 24.7947 22.7476 24.8425 23.122H25.9635L26.1388 23.6124C26.2716 23.9816 26.4682 24.3191 26.7232 24.6196L27.0632 25.0152L26.5 25.9802C26.8028 26.2122 27.1375 26.4021 27.4935 26.5497L28.0566 25.5847L28.5719 25.6796C28.9597 25.7534 29.3582 25.7534 29.746 25.6796L30.2613 25.5847ZM30.75 22.5155C30.75 21.5821 29.9903 20.828 29.05 20.828C28.1097 20.828 27.35 21.5821 27.35 22.5155C27.35 23.4489 28.1097 24.203 29.05 24.203C29.9903 24.203 30.75 23.4489 30.75 22.5155ZM30.75 6.46848C30.75 5.53508 29.9903 4.78098 29.05 4.78098C28.1097 4.78098 27.35 5.53508 27.35 6.46848C27.35 7.40188 28.1097 8.15598 29.05 8.15598C29.9903 8.15598 30.75 7.3966 30.75 6.46848Z" fill="white"/>
</svg>
