<svg width="117" height="117" viewBox="0 0 117 117" fill="none" xmlns="http://www.w3.org/2000/svg">
<g filter="url(#filter0_d_208_100)">
<circle cx="58.5" cy="55.5" r="38" fill="#1AD18F" stroke="#0ED984"/>
<path d="M70.5 54.0469H60.5V44.3594C60.5 44.0918 60.2762 43.875 60 43.875H58C57.7238 43.875 57.5 44.0918 57.5 44.3594V54.0469H47.5C47.2237 54.0469 47 54.2636 47 54.5312V56.4688C47 56.7364 47.2237 56.9531 47.5 56.9531H57.5V66.6406C57.5 66.9082 57.7238 67.125 58 67.125H60C60.2762 67.125 60.5 66.9082 60.5 66.6406V56.9531H70.5C70.7763 56.9531 71 56.7364 71 56.4688V54.5312C71 54.2636 70.7763 54.0469 70.5 54.0469Z" fill="white"/>
</g>
<defs>
<filter id="filter0_d_208_100" x="0" y="0" width="117" height="117" filterUnits="userSpaceOnUse" color-interpolation-filters="sRGB">
<feFlood flood-opacity="0" result="BackgroundImageFix"/>
<feColorMatrix in="SourceAlpha" type="matrix" values="0 0 0 0 0 0 0 0 0 0 0 0 0 0 0 0 0 0 127 0" result="hardAlpha"/>
<feOffset dy="3"/>
<feGaussianBlur stdDeviation="10"/>
<feColorMatrix type="matrix" values="0 0 0 0 0.509167 0 0 0 0 0.598114 0 0 0 0 0.65 0 0 0 0.25 0"/>
<feBlend mode="normal" in2="BackgroundImageFix" result="effect1_dropShadow_208_100"/>
<feBlend mode="normal" in="SourceGraphic" in2="effect1_dropShadow_208_100" result="shape"/>
</filter>
</defs>
</svg>
